# xmcd
# 
# Track frame offsets:
#     150
#     13006
#     40330
#     53080
# 
# Disc length: 879
# 
# Revision: 0
# Processed by: cddbd v1.5.2PL0 Copyright (c) Steve Scherf et al.
# Submitted via: BonkEnc v1.0.6
# 
DISCID=2a036d04
DTITLE=DJ Jean - The launch relaunched [CDs)
DYEAR=2008
DGENRE=Trance
TTITLE0=The Launch relaunched radio edit (by Johnny Crockett)
TTITLE1=The Launch relaunched clubmix (by Johnny Crockett)
TTITLE2=The Launch relaunched Marks and Gates mix (short version)
TTITLE3=The Launch relaunched (single edit)
EXTD=
EXTT0=
EXTT1=
EXTT2=
EXTT3=
PLAYORDER=
